<svg id="Layer_1" data-name="Layer 1" xmlns="http://www.w3.org/2000/svg" xmlns:xlink="http://www.w3.org/1999/xlink" viewBox="0 0 49.75 43.21"><defs><style>.cls-1{fill:none;}.cls-2{fill:#85f9ed;}.cls-3{clip-path:url(#clip-path);}.cls-4{fill:#49a09d;}.cls-5{fill:#5abfba;}.cls-6{clip-path:url(#clip-path-2);}</style><clipPath id="clip-path" transform="translate(-0.04 -6.67)"><polygon class="cls-1" points="37.46 49.76 49.79 28.15 24.91 28.27 12.59 49.88 37.46 49.76"/></clipPath><clipPath id="clip-path-2" transform="translate(-0.04 -6.67)"><polygon class="cls-1" points="34.32 22.8 37.4 17.41 31.19 17.44 28.11 22.83 34.32 22.8"/></clipPath></defs><title>logo-spidermesh-f-cube</title><polygon class="cls-2" points="49.75 21.48 37.2 0 12.33 0.13 24.88 21.61 49.75 21.48"/><g class="cls-3"><rect class="cls-4" x="49.28" y="21.48" width="0.48" height="21.73"/><rect class="cls-4" x="13.25" y="21.48" width="36.02" height="21.73"/><rect class="cls-4" x="12.55" y="21.48" width="0.71" height="21.73"/></g><polygon class="cls-5" points="12.55 43.21 0 21.73 12.33 0.13 24.88 21.61 12.55 43.21"/><polygon class="cls-2" points="37.36 10.74 34.23 5.38 28.02 5.41 31.15 10.77 37.36 10.74"/><g class="cls-6"><rect class="cls-4" x="37.24" y="10.74" width="0.12" height="5.42"/><rect class="cls-4" x="28.25" y="10.74" width="8.99" height="5.42"/><rect class="cls-4" x="28.07" y="10.74" width="0.18" height="5.42"/></g><polygon class="cls-5" points="28.07 16.16 24.94 10.8 28.02 5.41 31.15 10.77 28.07 16.16"/></svg>