<svg id="Layer_1" data-name="Layer 1" xmlns="http://www.w3.org/2000/svg" viewBox="0 0 69.42 50"><defs><style>.cls-1{fill:#fff;}</style></defs><title>logo-spidermesh-f-name</title><path class="cls-1" d="M24.55,22.53v-12q0-3.44-3.52-3.44H13.79V31.11a2.38,2.38,0,0,0-2.55,1.74Q10.51,31.11,8,31.11H6.67a2.24,2.24,0,0,0-2.4,1.51V31.11H.79V50H4.27V35.29a1.55,1.55,0,0,1,.29-1,1.36,1.36,0,0,1,1-.31H6.91a1.42,1.42,0,0,1,.92.21,1.26,1.26,0,0,1,.24.91V50h3.48V35.29c0-.91.41-1.36,1.24-1.36h1.39a1.35,1.35,0,0,1,.91.21,1.32,1.32,0,0,1,.22.91V50h3.48V34.55a3.08,3.08,0,0,0-1.52-3V25.94H21C23.38,25.94,24.55,24.81,24.55,22.53ZM21.07,22a1.22,1.22,0,0,1-.24.91,1.41,1.41,0,0,1-.92.22H18.55a1.36,1.36,0,0,1-1-.31,1.55,1.55,0,0,1-.29-1V11.23a1.55,1.55,0,0,1,.29-1.05,1.36,1.36,0,0,1,1-.31h1.36a1.35,1.35,0,0,1,.92.22,1.22,1.22,0,0,1,.24.91Z" transform="translate(-0.39 0)"/><path class="cls-1" d="M4.34,25.94H7.21c2.4,0,3.6-1.13,3.6-3.41V18.66q0-3.43-3.57-3.44h-2A1.4,1.4,0,0,1,4.3,15a1.28,1.28,0,0,1-.23-.91V10.84a1.3,1.3,0,0,1,.23-.91,1.47,1.47,0,0,1,.93-.21h.93a1.43,1.43,0,0,1,.93.21,1.3,1.3,0,0,1,.23.91v1.47h3.41V10.49q0-3.44-3.64-3.44H4.26q-3.6,0-3.6,3.44v4q0,3.4,3.6,3.41h2a1.47,1.47,0,0,1,.93.21A1.3,1.3,0,0,1,7.4,19v3.14a1.3,1.3,0,0,1-.23.91,1.47,1.47,0,0,1-.93.21H5.31L4,23.15a14.86,14.86,0,0,1-3.26-.69v.07C.74,24.81,1.94,25.94,4.34,25.94Z" transform="translate(-0.39 0)"/><path class="cls-1" d="M.39,20.68v1.47c0,.1.13.21.35.31V20.68Z" transform="translate(-0.39 0)"/><rect class="cls-1" x="27.26" width="3.64" height="3.45"/><rect class="cls-1" x="27.34" y="7.05" width="3.48" height="18.89"/><path class="cls-1" d="M29.32,31.11H25.53c-2.4,0-3.6,1.14-3.6,3.44v12q0,3.4,3.6,3.41h3.72q3.6,0,3.6-3.41V44.54H29.44v1.55a1.39,1.39,0,0,1-.23.93,1.39,1.39,0,0,1-.93.23H26.5a1.36,1.36,0,0,1-.93-.23,1.25,1.25,0,0,1-.24-.89V41.64H33V34.55C33,32.25,31.75,31.11,29.32,31.11Zm.2,8H25.33V35a1.23,1.23,0,0,1,.24-.89,1.3,1.3,0,0,1,.93-.24h1.89a1.22,1.22,0,0,1,.91.24,1.29,1.29,0,0,1,.22.89Z" transform="translate(-0.39 0)"/><path class="cls-1" d="M42.1,39.27h-2a1.43,1.43,0,0,1-.93-.21,1.22,1.22,0,0,1-.24-.91V34.9a1.22,1.22,0,0,1,.24-.91,1.43,1.43,0,0,1,.93-.21H41A1.47,1.47,0,0,1,42,34a1.28,1.28,0,0,1,.23.91v1.47h3.4V34.55c0-2.3-1.21-3.44-3.63-3.44H39.12c-2.4,0-3.6,1.14-3.6,3.44v4q0,3.41,3.6,3.41h2a1.43,1.43,0,0,1,.93.21c.16.14.23.44.23.91v3.14a1.26,1.26,0,0,1-.23.91,1.43,1.43,0,0,1-.93.21h-.93a1.47,1.47,0,0,1-.93-.21,1.31,1.31,0,0,1-.23-.91V44.73H35.6v1.86q0,3.4,3.6,3.41h2.86q3.6,0,3.6-3.41V42.72Q45.66,39.27,42.1,39.27Z" transform="translate(-0.39 0)"/><path class="cls-1" d="M62.49,7V25.94H66v-13C66,11,66.79,10,68.42,10h1.39V7Z" transform="translate(-0.39 0)"/><path class="cls-1" d="M55.87,7.05H52.08q-3.6,0-3.6,3.44v12a5.79,5.79,0,0,0,0,.61V50H52V35.29a1.55,1.55,0,0,1,.29-1,1.33,1.33,0,0,1,1-.31h1.35a1.43,1.43,0,0,1,.93.21,1.26,1.26,0,0,1,.23.91V50h3.49V34.55c0-2.3-1.18-3.44-3.53-3.44H52V25.94h3.8c2.4,0,3.6-1.13,3.6-3.41V20.48H56V22a1.36,1.36,0,0,1-.23.93,1.34,1.34,0,0,1-.93.23H53.05a1.31,1.31,0,0,1-.93-.23,1.24,1.24,0,0,1-.23-.89V17.58h7.62V10.49Q59.51,7.05,55.87,7.05Zm.2,8H51.89v-4.1a1.24,1.24,0,0,1,.23-.89,1.31,1.31,0,0,1,.93-.23h1.89c.47,0,.77.07.91.23a1.29,1.29,0,0,1,.22.89Z" transform="translate(-0.39 0)"/><path class="cls-1" d="M39.24,25.94h5.91V0H41.66V7H37.87q-3.48,0-3.48,3.44V22.53c0,2.28,1.16,3.41,3.48,3.41ZM37.87,11a1.29,1.29,0,0,1,.23-.89A1.33,1.33,0,0,1,39,9.83h1.36a1.32,1.32,0,0,1,1,.31,1.5,1.5,0,0,1,.29,1V21.76a1.5,1.5,0,0,1-.29,1,1.32,1.32,0,0,1-1,.31H39a1.46,1.46,0,0,1-.93-.22,1.28,1.28,0,0,1-.23-.91Z" transform="translate(-0.39 0)"/></svg>