<svg id="Layer_1" data-name="Layer 1" xmlns="http://www.w3.org/2000/svg" viewBox="0 0 112.77 50"><defs><style>.cls-1{fill:none}.cls-2{fill:#3d4e54}.cls-3{fill:#85f9ed}.cls-5{fill:#49a09d}.cls-6{fill:#5abfba}</style><clipPath id="clip-path" transform="translate(-.04)"><path class="cls-1" d="M37.46 49.76l12.33-21.61-24.88.12-12.32 21.61 24.87-.12z"/></clipPath><clipPath id="clip-path-2" transform="translate(-.04)"><path class="cls-1" d="M34.32 22.8l3.08-5.39-6.21.03-3.08 5.39 6.21-.03z"/></clipPath></defs><path class="cls-2" d="M67.55 22.53v-12q0-3.44-3.52-3.44h-7.24v24.02a2.38 2.38 0 0 0-2.55 1.74q-.74-1.74-3.21-1.74h-1.36a2.24 2.24 0 0 0-2.4 1.51v-1.51h-3.48V50h3.48V35.29a1.55 1.55 0 0 1 .29-1 1.36 1.36 0 0 1 1-.31h1.36a1.42 1.42 0 0 1 .92.21 1.26 1.26 0 0 1 .24.91V50h3.48V35.29c0-.91.41-1.36 1.24-1.36h1.39a1.35 1.35 0 0 1 .91.21 1.32 1.32 0 0 1 .22.91V50h3.48V34.55a3.08 3.08 0 0 0-1.52-3v-5.61H64c2.38 0 3.55-1.13 3.55-3.41zM64.07 22a1.22 1.22 0 0 1-.24.91 1.41 1.41 0 0 1-.92.22h-1.36a1.36 1.36 0 0 1-1-.31 1.55 1.55 0 0 1-.29-1V11.23a1.55 1.55 0 0 1 .29-1.05 1.36 1.36 0 0 1 1-.31h1.36a1.35 1.35 0 0 1 .92.22 1.22 1.22 0 0 1 .24.91z" transform="translate(-.04)"/><path class="cls-2" d="M47.34 25.94h2.87c2.4 0 3.6-1.13 3.6-3.41v-3.87q0-3.43-3.57-3.44h-2a1.4 1.4 0 0 1-.94-.22 1.28 1.28 0 0 1-.23-.91v-3.25a1.3 1.3 0 0 1 .23-.91 1.47 1.47 0 0 1 .93-.21h.93a1.43 1.43 0 0 1 .93.21 1.3 1.3 0 0 1 .23.91v1.47h3.41v-1.82q0-3.44-3.64-3.44h-2.83q-3.6 0-3.6 3.44v4q0 3.4 3.6 3.41h2a1.47 1.47 0 0 1 .93.21 1.3 1.3 0 0 1 .23.91v3.14a1.3 1.3 0 0 1-.23.91 1.47 1.47 0 0 1-.93.21h-.93L47 23.15a14.86 14.86 0 0 1-3.26-.69v.07c0 2.28 1.2 3.41 3.6 3.41z" transform="translate(-.04)"/><path class="cls-2" d="M43.39 20.68v1.47c0 .1.13.21.35.31v-1.78z" transform="translate(-.04)"/><path class="cls-2" d="M70.61 0h3.64v3.45h-3.64zM70.69 7.05h3.48v18.89h-3.48z"/><path class="cls-2" d="M72.32 31.11h-3.79c-2.4 0-3.6 1.14-3.6 3.44v12q0 3.4 3.6 3.41h3.72q3.6 0 3.6-3.41v-2.01h-3.41v1.55a.93.93 0 0 1-1.16 1.16H69.5a1.36 1.36 0 0 1-.93-.23 1.25 1.25 0 0 1-.24-.89v-4.49H76v-7.09c0-2.3-1.25-3.44-3.68-3.44zm.2 8h-4.19V35a1.23 1.23 0 0 1 .24-.89 1.3 1.3 0 0 1 .93-.24h1.89a1.22 1.22 0 0 1 .91.24 1.29 1.29 0 0 1 .22.89zM85.1 39.27h-2a1.43 1.43 0 0 1-.93-.21 1.22 1.22 0 0 1-.24-.91V34.9a1.22 1.22 0 0 1 .24-.91 1.43 1.43 0 0 1 .93-.21h.9a1.47 1.47 0 0 1 1 .22 1.28 1.28 0 0 1 .23.91v1.47h3.4v-1.83c0-2.3-1.21-3.44-3.63-3.44h-2.88c-2.4 0-3.6 1.14-3.6 3.44v4q0 3.41 3.6 3.41h2a1.43 1.43 0 0 1 .93.21c.16.14.23.44.23.91v3.14a1.26 1.26 0 0 1-.23.91 1.43 1.43 0 0 1-.93.21h-.93a1.47 1.47 0 0 1-.93-.21 1.31 1.31 0 0 1-.23-.91v-1.49H78.6v1.86q0 3.4 3.6 3.41h2.86q3.6 0 3.6-3.41v-3.87q0-3.45-3.56-3.45zM105.49 7v18.94H109v-13c0-1.91.81-2.86 2.44-2.86h1.39V7zM98.87 7.05h-3.79q-3.6 0-3.6 3.44v12a5.79 5.79 0 0 0 0 .61V50H95V35.29a1.55 1.55 0 0 1 .29-1 1.33 1.33 0 0 1 1-.31h1.35a1.43 1.43 0 0 1 .93.21 1.26 1.26 0 0 1 .23.91V50h3.49V34.55c0-2.3-1.18-3.44-3.53-3.44H95v-5.17h3.8c2.4 0 3.6-1.13 3.6-3.41v-2.05H99V22a1.36 1.36 0 0 1-.23.93 1.34 1.34 0 0 1-.93.23h-1.79a1.31 1.31 0 0 1-.93-.23 1.24 1.24 0 0 1-.23-.89v-4.46h7.62v-7.09q0-3.44-3.64-3.44zm.2 8h-4.18v-4.1a1.24 1.24 0 0 1 .23-.89 1.31 1.31 0 0 1 .93-.23h1.89c.47 0 .77.07.91.23a1.29 1.29 0 0 1 .22.89zM82.24 25.94h5.91V0h-3.49v7h-3.79q-3.48 0-3.48 3.44v12.09c0 2.28 1.16 3.41 3.48 3.41zM80.87 11a1.29 1.29 0 0 1 .23-.89 1.33 1.33 0 0 1 .9-.28h1.36a1.32 1.32 0 0 1 1 .31 1.5 1.5 0 0 1 .29 1v10.62a1.5 1.5 0 0 1-.29 1 1.32 1.32 0 0 1-1 .31H82a1.46 1.46 0 0 1-.93-.22 1.28 1.28 0 0 1-.23-.91z" transform="translate(-.04)"/><path class="cls-3" d="M49.75 28.15L37.2 6.67l-24.87.12 12.55 21.48 24.87-.12z"/><g clip-path="url(#clip-path)"><path class="cls-5" d="M49.28 28.15h.48v21.73h-.48zM13.25 28.15h36.02v21.73H13.25z"/><path class="cls-5" d="M12.55 28.15h.71v21.73h-.71z"/></g><path class="cls-6" d="M12.55 49.88L0 28.4 12.33 6.79l12.55 21.48-12.33 21.61z"/><path class="cls-3" d="M37.36 17.41l-3.13-5.36-6.21.03 3.13 5.36 6.21-.03z"/><g clip-path="url(#clip-path-2)"><path class="cls-5" d="M37.24 17.41h.12v5.42h-.12zM28.25 17.41h8.99v5.42h-8.99zM28.07 17.41h.18v5.42h-.18z"/></g><path class="cls-6" d="M28.07 22.83l-3.13-5.36 3.08-5.39 3.13 5.36-3.08 5.39z"/></svg>