<svg id="Layer_1" data-name="Layer 1" xmlns="http://www.w3.org/2000/svg" xmlns:xlink="http://www.w3.org/1999/xlink" viewBox="0 0 112.77 50"><defs><style>.cls-1{fill:none;}.cls-2{fill:#f0fafc;}.cls-3{fill:#85f9ed;}.cls-4{clip-path:url(#clip-path);}.cls-5{fill:#49a09d;}.cls-6{fill:#5abfba;}.cls-7{clip-path:url(#clip-path-2);}</style><clipPath id="clip-path" transform="translate(-0.04 0)"><polygon class="cls-1" points="37.46 49.76 49.79 28.15 24.91 28.27 12.59 49.88 37.46 49.76"/></clipPath><clipPath id="clip-path-2" transform="translate(-0.04 0)"><polygon class="cls-1" points="34.32 22.8 37.4 17.41 31.19 17.44 28.11 22.83 34.32 22.8"/></clipPath></defs><title>logo-spidermesh-f--white</title><path class="cls-2" d="M67.55,22.53v-12q0-3.44-3.52-3.44H56.79V31.11a2.38,2.38,0,0,0-2.55,1.74q-.74-1.74-3.21-1.74H49.67a2.24,2.24,0,0,0-2.4,1.51V31.11H43.79V50h3.48V35.29a1.55,1.55,0,0,1,.29-1,1.36,1.36,0,0,1,1-.31h1.36a1.42,1.42,0,0,1,.92.21,1.26,1.26,0,0,1,.24.91V50h3.48V35.29c0-.91.41-1.36,1.24-1.36h1.39a1.35,1.35,0,0,1,.91.21,1.32,1.32,0,0,1,.22.91V50h3.48V34.55a3.08,3.08,0,0,0-1.52-3V25.94H64C66.38,25.94,67.55,24.81,67.55,22.53ZM64.07,22a1.22,1.22,0,0,1-.24.91,1.41,1.41,0,0,1-.92.22H61.55a1.36,1.36,0,0,1-1-.31,1.55,1.55,0,0,1-.29-1V11.23a1.55,1.55,0,0,1,.29-1.05,1.36,1.36,0,0,1,1-.31h1.36a1.35,1.35,0,0,1,.92.22,1.22,1.22,0,0,1,.24.91Z" transform="translate(-0.04 0)"/><path class="cls-2" d="M47.34,25.94h2.87c2.4,0,3.6-1.13,3.6-3.41V18.66q0-3.43-3.57-3.44h-2A1.4,1.4,0,0,1,47.3,15a1.28,1.28,0,0,1-.23-.91V10.84a1.3,1.3,0,0,1,.23-.91,1.47,1.47,0,0,1,.93-.21h.93a1.43,1.43,0,0,1,.93.21,1.3,1.3,0,0,1,.23.91v1.47h3.41V10.49q0-3.44-3.64-3.44H47.26q-3.6,0-3.6,3.44v4q0,3.4,3.6,3.41h2a1.47,1.47,0,0,1,.93.21,1.3,1.3,0,0,1,.23.91v3.14a1.3,1.3,0,0,1-.23.91,1.47,1.47,0,0,1-.93.21h-.93L47,23.15a14.86,14.86,0,0,1-3.26-.69v.07C43.74,24.81,44.94,25.94,47.34,25.94Z" transform="translate(-0.04 0)"/><path class="cls-2" d="M43.39,20.68v1.47c0,.1.13.21.35.31V20.68Z" transform="translate(-0.04 0)"/><rect class="cls-2" x="70.61" width="3.64" height="3.45"/><rect class="cls-2" x="70.69" y="7.05" width="3.48" height="18.89"/><path class="cls-2" d="M72.32,31.11H68.53c-2.4,0-3.6,1.14-3.6,3.44v12q0,3.4,3.6,3.41h3.72q3.6,0,3.6-3.41V44.54H72.44v1.55a.93.93,0,0,1-1.16,1.16H69.5a1.36,1.36,0,0,1-.93-.23,1.25,1.25,0,0,1-.24-.89V41.64H76V34.55C76,32.25,74.75,31.11,72.32,31.11Zm.2,8H68.33V35a1.23,1.23,0,0,1,.24-.89,1.3,1.3,0,0,1,.93-.24h1.89a1.22,1.22,0,0,1,.91.24,1.29,1.29,0,0,1,.22.89Z" transform="translate(-0.04 0)"/><path class="cls-2" d="M85.1,39.27h-2a1.43,1.43,0,0,1-.93-.21,1.22,1.22,0,0,1-.24-.91V34.9a1.22,1.22,0,0,1,.24-.91,1.43,1.43,0,0,1,.93-.21H84A1.47,1.47,0,0,1,85,34a1.28,1.28,0,0,1,.23.91v1.47h3.4V34.55c0-2.3-1.21-3.44-3.63-3.44H82.12c-2.4,0-3.6,1.14-3.6,3.44v4q0,3.41,3.6,3.41h2a1.43,1.43,0,0,1,.93.21c.16.14.23.44.23.91v3.14a1.26,1.26,0,0,1-.23.91,1.43,1.43,0,0,1-.93.21h-.93a1.47,1.47,0,0,1-.93-.21,1.31,1.31,0,0,1-.23-.91V44.73H78.6v1.86q0,3.4,3.6,3.41h2.86q3.6,0,3.6-3.41V42.72Q88.66,39.27,85.1,39.27Z" transform="translate(-0.04 0)"/><path class="cls-2" d="M105.49,7V25.94H109v-13c0-1.91.81-2.86,2.44-2.86h1.39V7Z" transform="translate(-0.04 0)"/><path class="cls-2" d="M98.87,7.05H95.08q-3.6,0-3.6,3.44v12a5.79,5.79,0,0,0,0,.61V50H95V35.29a1.55,1.55,0,0,1,.29-1,1.33,1.33,0,0,1,1-.31h1.35a1.43,1.43,0,0,1,.93.21,1.26,1.26,0,0,1,.23.91V50h3.49V34.55c0-2.3-1.18-3.44-3.53-3.44H95V25.94h3.8c2.4,0,3.6-1.13,3.6-3.41V20.48H99V22a1.36,1.36,0,0,1-.23.93,1.34,1.34,0,0,1-.93.23H96.05a1.31,1.31,0,0,1-.93-.23,1.24,1.24,0,0,1-.23-.89V17.58h7.62V10.49Q102.51,7.05,98.87,7.05Zm.2,8H94.89v-4.1a1.24,1.24,0,0,1,.23-.89,1.31,1.31,0,0,1,.93-.23h1.89c.47,0,.77.07.91.23a1.29,1.29,0,0,1,.22.89Z" transform="translate(-0.04 0)"/><path class="cls-2" d="M82.24,25.94h5.91V0H84.66V7H80.87q-3.48,0-3.48,3.44V22.53c0,2.28,1.16,3.41,3.48,3.41ZM80.87,11a1.29,1.29,0,0,1,.23-.89A1.33,1.33,0,0,1,82,9.83h1.36a1.32,1.32,0,0,1,1,.31,1.5,1.5,0,0,1,.29,1V21.76a1.5,1.5,0,0,1-.29,1,1.32,1.32,0,0,1-1,.31H82a1.46,1.46,0,0,1-.93-.22,1.28,1.28,0,0,1-.23-.91Z" transform="translate(-0.04 0)"/><polygon class="cls-3" points="49.75 28.15 37.2 6.67 12.33 6.79 24.88 28.27 49.75 28.15"/><g class="cls-4"><rect class="cls-5" x="49.28" y="28.15" width="0.48" height="21.73"/><rect class="cls-5" x="13.25" y="28.15" width="36.02" height="21.73"/><rect class="cls-5" x="12.55" y="28.15" width="0.71" height="21.73"/></g><polygon class="cls-6" points="12.55 49.88 0 28.4 12.33 6.79 24.88 28.27 12.55 49.88"/><polygon class="cls-3" points="37.36 17.41 34.23 12.05 28.02 12.08 31.15 17.44 37.36 17.41"/><g class="cls-7"><rect class="cls-5" x="37.24" y="17.41" width="0.12" height="5.42"/><rect class="cls-5" x="28.25" y="17.41" width="8.99" height="5.42"/><rect class="cls-5" x="28.07" y="17.41" width="0.18" height="5.42"/></g><polygon class="cls-6" points="28.07 22.83 24.94 17.47 28.02 12.08 31.15 17.44 28.07 22.83"/></svg>